<svg width="100%" viewBox="0 0 710 510" role="img" xmlns="http://www.w3.org/2000/svg" style="">
<title style="fill:rgb(0, 0, 0);stroke:none;color:rgb(255, 255, 255);stroke-width:1px;stroke-linecap:butt;stroke-linejoin:miter;opacity:1;font-family:&quot;Anthropic Sans&quot;, -apple-system, BlinkMacSystemFont, &quot;Segoe UI&quot;, sans-serif;font-size:16px;font-weight:400;text-anchor:start;dominant-baseline:auto">Task manager background pattern</title>
<desc style="fill:rgb(0, 0, 0);stroke:none;color:rgb(255, 255, 255);stroke-width:1px;stroke-linecap:butt;stroke-linejoin:miter;opacity:1;font-family:&quot;Anthropic Sans&quot;, -apple-system, BlinkMacSystemFont, &quot;Segoe UI&quot;, sans-serif;font-size:16px;font-weight:400;text-anchor:start;dominant-baseline:auto">Subtle geometric office-themed pattern in purple-compatible pastel tones on white</desc>



<rect x="0" y="0" width="680" height="480" style="fill:rgb(255, 255, 255);stroke:none;color:rgb(255, 255, 255);stroke-width:1px;stroke-linecap:butt;stroke-linejoin:miter;opacity:1;font-family:&quot;Anthropic Sans&quot;, -apple-system, BlinkMacSystemFont, &quot;Segoe UI&quot;, sans-serif;font-size:16px;font-weight:400;text-anchor:start;dominant-baseline:auto"/>

<line x1="0" y1="0" x2="680" y2="480" style="fill:rgb(0, 0, 0);stroke:rgb(196, 181, 216);color:rgb(255, 255, 255);stroke-width:0.4px;stroke-linecap:butt;stroke-linejoin:miter;opacity:0.12;font-family:&quot;Anthropic Sans&quot;, -apple-system, BlinkMacSystemFont, &quot;Segoe UI&quot;, sans-serif;font-size:16px;font-weight:400;text-anchor:start;dominant-baseline:auto"/>
<line x1="80" y1="0" x2="680" y2="420" style="fill:rgb(0, 0, 0);stroke:rgb(196, 181, 216);color:rgb(255, 255, 255);stroke-width:0.4px;stroke-linecap:butt;stroke-linejoin:miter;opacity:0.12;"/>
<line x1="160" y1="0" x2="680" y2="360" style="fill:rgb(0, 0, 0);stroke:rgb(196, 181, 216);color:rgb(255, 255, 255);stroke-width:0.4px;stroke-linecap:butt;stroke-linejoin:miter;opacity:0.12;"/>
<line x1="240" y1="0" x2="680" y2="300" style="fill:rgb(0, 0, 0);stroke:rgb(196, 181, 216);color:rgb(255, 255, 255);stroke-width:0.4px;stroke-linecap:butt;stroke-linejoin:miter;opacity:0.12;"/>
<line x1="320" y1="0" x2="680" y2="240" style="fill:rgb(0, 0, 0);stroke:rgb(196, 181, 216);color:rgb(255, 255, 255);stroke-width:0.4px;stroke-linecap:butt;stroke-linejoin:miter;opacity:0.12;"/>
<line x1="400" y1="0" x2="680" y2="180" style="fill:rgb(0, 0, 0);stroke:rgb(196, 181, 216);color:rgb(255, 255, 255);stroke-width:0.4px;stroke-linecap:butt;stroke-linejoin:miter;opacity:0.12;"/>
<line x1="480" y1="0" x2="680" y2="120" style="fill:rgb(0, 0, 0);stroke:rgb(196, 181, 216);color:rgb(255, 255, 255);stroke-width:0.4px;stroke-linecap:butt;stroke-linejoin:miter;opacity:0.12;"/>
<line x1="560" y1="0" x2="680" y2="60" style="fill:rgb(0, 0, 0);stroke:rgb(196, 181, 216);color:rgb(255, 255, 255);stroke-width:0.4px;stroke-linecap:butt;stroke-linejoin:miter;opacity:0.12;"/>
<line x1="0" y1="60" x2="620" y2="480" style="fill:rgb(0, 0, 0);stroke:rgb(196, 181, 216);color:rgb(255, 255, 255);stroke-width:0.4px;stroke-linecap:butt;stroke-linejoin:miter;opacity:0.12;"/>
<line x1="0" y1="120" x2="560" y2="480" style="fill:rgb(0, 0, 0);stroke:rgb(196, 181, 216);color:rgb(255, 255, 255);stroke-width:0.4px;stroke-linecap:butt;stroke-linejoin:miter;opacity:0.12;"/>
<line x1="0" y1="180" x2="500" y2="480" style="fill:rgb(0, 0, 0);stroke:rgb(196, 181, 216);color:rgb(255, 255, 255);stroke-width:0.4px;stroke-linecap:butt;stroke-linejoin:miter;opacity:0.12;"/>
<line x1="0" y1="240" x2="440" y2="480" style="fill:rgb(0, 0, 0);stroke:rgb(196, 181, 216);color:rgb(255, 255, 255);stroke-width:0.4px;stroke-linecap:butt;stroke-linejoin:miter;opacity:0.12;"/>
<line x1="0" y1="300" x2="380" y2="480" style="fill:rgb(0, 0, 0);stroke:rgb(196, 181, 216);color:rgb(255, 255, 255);stroke-width:0.4px;stroke-linecap:butt;stroke-linejoin:miter;opacity:0.12;"/>
<line x1="0" y1="360" x2="320" y2="480" style="fill:rgb(0, 0, 0);stroke:rgb(196, 181, 216);color:rgb(255, 255, 255);stroke-width:0.4px;stroke-linecap:butt;stroke-linejoin:miter;opacity:0.12;"/>
<line x1="0" y1="420" x2="260" y2="480" style="fill:rgb(0, 0, 0);stroke:rgb(196, 181, 216);color:rgb(255, 255, 255);stroke-width:0.4px;stroke-linecap:butt;stroke-linejoin:miter;opacity:0.12;"/>

<circle cx="100" cy="80" r="120" style="fill:rgb(232, 224, 244);stroke:none;opacity:0.12;"/>
<circle cx="580" cy="400" r="100" style="fill:rgb(232, 224, 244);stroke:none;opacity:0.12;"/>
<circle cx="620" cy="60" r="80" style="fill:rgb(232, 224, 244);stroke:none;opacity:0.12;"/>
<circle cx="40" cy="420" r="70" style="fill:rgb(232, 224, 244);stroke:none;opacity:0.12;"/>

<g transform="translate(40, 38)">
  <rect x="0" y="0" width="120" height="56" rx="5" style="fill:none;stroke:rgb(184, 168, 212);stroke-width:0.8px;opacity:0.22;"/>
  <rect x="8" y="10" width="12" height="12" rx="2" style="fill:none;stroke:rgb(159, 133, 192);stroke-width:1px;opacity:0.2;"/>
  <polyline points="10,16 13,19 18,13" style="fill:none;stroke:rgb(124, 92, 191);stroke-width:1.2px;stroke-linecap:round;opacity:0.22;"/>
  <rect x="26" y="11" width="72" height="5" rx="2" style="fill:rgb(196, 181, 216);stroke:none;opacity:0.15;"/>
  <rect x="26" y="20" width="48" height="4" rx="2" style="fill:rgb(159, 133, 192);stroke:none;opacity:0.18;"/>
  <rect x="8" y="30" width="12" height="12" rx="2" style="fill:none;stroke:rgb(159, 133, 192);stroke-width:1px;opacity:0.2;"/>
  <rect x="26" y="31" width="60" height="5" rx="2" style="fill:rgb(196, 181, 216);stroke:none;opacity:0.15;"/>
  <rect x="26" y="40" width="40" height="4" rx="2" style="fill:rgb(196, 181, 216);stroke:none;opacity:0.15;"/>
</g>

<g transform="translate(530, 30)">
  <rect x="0" y="0" width="110" height="52" rx="5" style="fill:none;stroke:rgb(184, 168, 212);stroke-width:0.8px;opacity:0.22;"/>
  <rect x="8" y="9" width="11" height="11" rx="2" style="fill:none;stroke:rgb(159, 133, 192);stroke-width:1px;opacity:0.2;"/>
  <rect x="24" y="10" width="66" height="5" rx="2" style="fill:rgb(159, 133, 192);stroke:none;opacity:0.18;"/>
  <rect x="24" y="19" width="44" height="4" rx="2" style="fill:rgb(196, 181, 216);stroke:none;opacity:0.15;"/>
  <rect x="8" y="28" width="11" height="11" rx="2" style="fill:none;stroke:rgb(159, 133, 192);stroke-width:1px;opacity:0.2;"/>
  <polyline points="10,34 13,37 17,31" style="fill:none;stroke:rgb(124, 92, 191);stroke-width:1.2px;stroke-linecap:round;opacity:0.22;"/>
  <rect x="24" y="29" width="55" height="5" rx="2" style="fill:rgb(196, 181, 216);stroke:none;opacity:0.15;"/>
  <rect x="24" y="38" width="35" height="4" rx="2" style="fill:rgb(196, 181, 216);stroke:none;opacity:0.15;"/>
</g>

<g transform="translate(270, 18)">
  <rect x="0" y="0" width="130" height="44" rx="5" style="fill:none;stroke:rgb(184, 168, 212);stroke-width:0.8px;opacity:0.22;"/>
  <rect x="10" y="10" width="80" height="5" rx="2" style="fill:rgb(159, 133, 192);stroke:none;opacity:0.18;"/>
  <rect x="10" y="19" width="50" height="4" rx="2" style="fill:rgb(196, 181, 216);stroke:none;opacity:0.15;"/>
  <rect x="10" y="27" width="65" height="4" rx="2" style="fill:rgb(196, 181, 216);stroke:none;opacity:0.15;"/>
</g>

<g transform="translate(30, 180)">
  <rect x="0" y="0" width="100" height="90" rx="5" style="fill:none;stroke:rgb(184, 168, 212);stroke-width:0.8px;opacity:0.22;"/>
  <rect x="8" y="10" width="10" height="10" rx="2" style="fill:none;stroke:rgb(159, 133, 192);stroke-width:1px;opacity:0.2;"/>
  <polyline points="9.5,15 12.5,18 17,12" style="fill:none;stroke:rgb(124, 92, 191);stroke-width:1.2px;stroke-linecap:round;opacity:0.22;"/>
  <rect x="22" y="11" width="62" height="4" rx="2" style="fill:rgb(196, 181, 216);stroke:none;opacity:0.15;"/>
  <rect x="8" y="26" width="10" height="10" rx="2" style="fill:none;stroke:rgb(159, 133, 192);stroke-width:1px;opacity:0.2;"/>
  <rect x="22" y="27" width="48" height="4" rx="2" style="fill:rgb(196, 181, 216);stroke:none;opacity:0.15;"/>
  <rect x="8" y="42" width="10" height="10" rx="2" style="fill:none;stroke:rgb(159, 133, 192);stroke-width:1px;opacity:0.2;"/>
  <polyline points="9.5,47 12.5,50 17,44" style="fill:none;stroke:rgb(124, 92, 191);stroke-width:1.2px;stroke-linecap:round;opacity:0.22;"/>
  <rect x="22" y="43" width="55" height="4" rx="2" style="fill:rgb(159, 133, 192);stroke:none;opacity:0.18;"/>
  <rect x="8" y="58" width="10" height="10" rx="2" style="fill:none;stroke:rgb(159, 133, 192);stroke-width:1px;opacity:0.2;"/>
  <rect x="22" y="59" width="38" height="4" rx="2" style="fill:rgb(196, 181, 216);stroke:none;opacity:0.15;"/>
  <rect x="8" y="74" width="76" height="5" rx="3" style="fill:rgb(196, 181, 216);stroke:none;opacity:0.15;"/>
</g>

<g transform="translate(558, 175)">
  <rect x="0" y="0" width="90" height="80" rx="5" style="fill:none;stroke:rgb(184, 168, 212);stroke-width:0.8px;opacity:0.22;"/>
  <rect x="8" y="9" width="10" height="10" rx="2" style="fill:none;stroke:rgb(159, 133, 192);stroke-width:1px;opacity:0.2;"/>
  <rect x="22" y="10" width="55" height="4" rx="2" style="fill:rgb(196, 181, 216);stroke:none;opacity:0.15;"/>
  <rect x="8" y="24" width="10" height="10" rx="2" style="fill:none;stroke:rgb(159, 133, 192);stroke-width:1px;opacity:0.2;"/>
  <polyline points="9.5,29 12.5,32 17,26" style="fill:none;stroke:rgb(124, 92, 191);stroke-width:1.2px;stroke-linecap:round;opacity:0.22;"/>
  <rect x="22" y="25" width="42" height="4" rx="2" style="fill:rgb(159, 133, 192);stroke:none;opacity:0.18;"/>
  <rect x="8" y="39" width="10" height="10" rx="2" style="fill:none;stroke:rgb(159, 133, 192);stroke-width:1px;opacity:0.2;"/>
  <rect x="22" y="40" width="50" height="4" rx="2" style="fill:rgb(196, 181, 216);stroke:none;opacity:0.15;"/>
  <rect x="8" y="56" width="70" height="5" rx="3" style="fill:rgb(196, 181, 216);stroke:none;opacity:0.15;"/>
  <rect x="8" y="64" width="48" height="3" rx="2" style="fill:rgb(196, 181, 216);stroke:none;opacity:0.15;"/>
</g>

<g transform="translate(220, 370)">
  <rect x="0" y="0" width="140" height="60" rx="5" style="fill:none;stroke:rgb(184, 168, 212);stroke-width:0.8px;opacity:0.22;"/>
  <rect x="8" y="10" width="11" height="11" rx="2" style="fill:none;stroke:rgb(159, 133, 192);stroke-width:1px;opacity:0.2;"/>
  <polyline points="9.5,15.5 12.5,18.5 17,12.5" style="fill:none;stroke:rgb(124, 92, 191);stroke-width:1.2px;stroke-linecap:round;opacity:0.22;"/>
  <rect x="24" y="11" width="80" height="5" rx="2" style="fill:rgb(196, 181, 216);stroke:none;opacity:0.15;"/>
  <rect x="24" y="20" width="52" height="4" rx="2" style="fill:rgb(196, 181, 216);stroke:none;opacity:0.15;"/>
  <rect x="8" y="30" width="11" height="11" rx="2" style="fill:none;stroke:rgb(159, 133, 192);stroke-width:1px;opacity:0.2;"/>
  <rect x="24" y="31" width="70" height="5" rx="2" style="fill:rgb(159, 133, 192);stroke:none;opacity:0.18;"/>
  <rect x="24" y="40" width="44" height="4" rx="2" style="fill:rgb(196, 181, 216);stroke:none;opacity:0.15;"/>
  <rect x="8" y="49" width="110" height="5" rx="3" style="fill:rgb(196, 181, 216);stroke:none;opacity:0.15;"/>
</g>

<g transform="translate(490, 360)">
  <rect x="0" y="0" width="90" height="68" rx="5" style="fill:none;stroke:rgb(184, 168, 212);stroke-width:0.8px;opacity:0.22;"/>
  <rect x="7" y="8" width="10" height="10" rx="2" style="fill:none;stroke:rgb(159, 133, 192);stroke-width:1px;opacity:0.2;"/>
  <polyline points="8.5,13 11.5,16 16,10" style="fill:none;stroke:rgb(124, 92, 191);stroke-width:1.2px;stroke-linecap:round;opacity:0.22;"/>
  <rect x="21" y="9" width="55" height="4" rx="2" style="fill:rgb(159, 133, 192);stroke:none;opacity:0.18;"/>
  <rect x="7" y="24" width="72" height="4" rx="2" style="fill:rgb(196, 181, 216);stroke:none;opacity:0.15;"/>
  <rect x="7" y="32" width="52" height="4" rx="2" style="fill:rgb(196, 181, 216);stroke:none;opacity:0.15;"/>
  <rect x="7" y="44" width="68" height="5" rx="3" style="fill:rgb(196, 181, 216);stroke:none;opacity:0.15;"/>
  <rect x="7" y="54" width="40" height="4" rx="2" style="fill:rgb(196, 181, 216);stroke:none;opacity:0.15;"/>
</g>

<g transform="translate(80, 360)">
  <rect x="0" y="0" width="108" height="74" rx="5" style="fill:none;stroke:rgb(184, 168, 212);stroke-width:0.8px;opacity:0.22;"/>
  <rect x="8" y="8" width="70" height="5" rx="2" style="fill:rgb(159, 133, 192);stroke:none;opacity:0.18;"/>
  <rect x="8" y="17" width="50" height="4" rx="2" style="fill:rgb(196, 181, 216);stroke:none;opacity:0.15;"/>
  <line x1="8" y1="29" x2="98" y2="29" style="stroke:rgb(196, 181, 216);stroke-width:0.6px;stroke-linecap:round;opacity:0.18;"/>
  <rect x="8" y="34" width="10" height="10" rx="2" style="fill:none;stroke:rgb(159, 133, 192);stroke-width:1px;opacity:0.2;"/>
  <rect x="22" y="35" width="65" height="4" rx="2" style="fill:rgb(196, 181, 216);stroke:none;opacity:0.15;"/>
  <rect x="8" y="48" width="10" height="10" rx="2" style="fill:none;stroke:rgb(159, 133, 192);stroke-width:1px;opacity:0.2;"/>
  <polyline points="9.5,53 12.5,56 17,50" style="fill:none;stroke:rgb(124, 92, 191);stroke-width:1.2px;stroke-linecap:round;opacity:0.22;"/>
  <rect x="22" y="49" width="48" height="4" rx="2" style="fill:rgb(196, 181, 216);stroke:none;opacity:0.15;"/>
  <rect x="8" y="62" width="80" height="5" rx="3" style="fill:rgb(196, 181, 216);stroke:none;opacity:0.15;"/>
</g>

<g transform="translate(180, 180)">
  <rect x="0" y="0" width="300" height="130" rx="6" style="fill:none;stroke:rgb(184, 168, 212);stroke-width:0.8px;opacity:0.22;"/>
  <rect x="12" y="12" width="120" height="6" rx="2" style="fill:rgb(159, 133, 192);stroke:none;opacity:0.18;"/>
  <rect x="12" y="22" width="80" height="4" rx="2" style="fill:rgb(196, 181, 216);stroke:none;opacity:0.15;"/>
  <line x1="12" y1="34" x2="288" y2="34" style="stroke:rgb(196, 181, 216);stroke-width:0.6px;stroke-linecap:round;opacity:0.18;"/>
  <rect x="12" y="40" width="12" height="12" rx="2" style="fill:none;stroke:rgb(159, 133, 192);stroke-width:1px;opacity:0.2;"/>
  <polyline points="13.5,46 16.5,49 21,43" style="fill:none;stroke:rgb(124, 92, 191);stroke-width:1.2px;stroke-linecap:round;opacity:0.22;"/>
  <rect x="28" y="41" width="140" height="5" rx="2" style="fill:rgb(196, 181, 216);stroke:none;opacity:0.15;"/>
  <rect x="28" y="50" width="90" height="4" rx="2" style="fill:rgb(196, 181, 216);stroke:none;opacity:0.15;"/>
  <rect x="12" y="60" width="12" height="12" rx="2" style="fill:none;stroke:rgb(159, 133, 192);stroke-width:1px;opacity:0.2;"/>
  <rect x="28" y="61" width="120" height="5" rx="2" style="fill:rgb(159, 133, 192);stroke:none;opacity:0.18;"/>
  <rect x="28" y="70" width="75" height="4" rx="2" style="fill:rgb(196, 181, 216);stroke:none;opacity:0.15;"/>
  <rect x="12" y="80" width="12" height="12" rx="2" style="fill:none;stroke:rgb(159, 133, 192);stroke-width:1px;opacity:0.2;"/>
  <polyline points="13.5,86 16.5,89 21,83" style="fill:none;stroke:rgb(124, 92, 191);stroke-width:1.2px;stroke-linecap:round;opacity:0.22;"/>
  <rect x="28" y="81" width="160" height="5" rx="2" style="fill:rgb(196, 181, 216);stroke:none;opacity:0.15;"/>
  <rect x="28" y="90" width="100" height="4" rx="2" style="fill:rgb(196, 181, 216);stroke:none;opacity:0.15;"/>
  <rect x="12" y="106" width="80" height="7" rx="3" style="fill:rgb(196, 181, 216);stroke:none;opacity:0.15;"/>
  <rect x="100" y="106" width="60" height="7" rx="3" style="fill:rgb(159, 133, 192);stroke:none;opacity:0.18;"/>
  <rect x="168" y="106" width="44" height="7" rx="3" style="fill:rgb(196, 181, 216);stroke:none;opacity:0.15;"/>
  <rect x="12" y="118" width="260" height="4" rx="2" style="fill:rgb(196, 181, 216);stroke:none;opacity:0.15;"/>
</g>

<circle cx="160" cy="38" r="2.5" style="fill:rgb(159, 133, 192);stroke:none;opacity:0.18;"/>
<circle cx="520" cy="120" r="2.5" style="fill:rgb(159, 133, 192);stroke:none;opacity:0.18;"/>
<circle cx="640" cy="300" r="2.5" style="fill:rgb(159, 133, 192);stroke:none;opacity:0.18;"/>
<circle cx="60" cy="300" r="2.5" style="fill:rgb(159, 133, 192);stroke:none;opacity:0.18;"/>
<circle cx="380" cy="460" r="2.5" style="fill:rgb(159, 133, 192);stroke:none;opacity:0.18;"/>
<circle cx="130" cy="460" r="2.5" style="fill:rgb(159, 133, 192);stroke:none;opacity:0.18;"/>
<circle cx="160" cy="38" r="6" style="fill:none;stroke:rgb(184, 168, 212);stroke-width:0.8px;opacity:0.2;"/>
<circle cx="520" cy="120" r="5" style="fill:none;stroke:rgb(184, 168, 212);stroke-width:0.8px;opacity:0.2;"/>
<circle cx="640" cy="300" r="5" style="fill:none;stroke:rgb(184, 168, 212);stroke-width:0.8px;opacity:0.2;"/>
</svg>
